# xmcd CD database file
#
# Track frame offsets:
#	150
#	11212
#	46867
#	70417
#	87185
#	117227
#	141642
#	157390
#
# Disc length: 2380 seconds
#
# Revision: 0
# Processed by: cddbd v1.5.1PL2 Copyright (c) Steve Scherf et al.
# Submitted via: CDex 1.51
#
DISCID=75094a08
DTITLE=Thelonious Monk - Something In Blue
DYEAR=1992
DGENRE=Jazz
TTITLE0=Blue Sphere
TTITLE1=Hackensack
TTITLE2=Nice Work If You Can Get It
TTITLE3=Criss Cross
TTITLE4=Something In Blue
TTITLE5=Evidence
TTITLE6=Jackie-Ing
TTITLE7=Nutty
EXTD=YEAR: 1992
EXTT0=
EXTT1=
EXTT2=
EXTT3=
EXTT4=
EXTT5=
EXTT6=
EXTT7=
PLAYORDER=
